  0
SECTION
  2
HEADER
  9
$ACADVER
  1
AC1024
  9
$ACADMAINTVER
 70
6
  9
$DWGCODEPAGE
  3
ANSI_1252
  9
$LASTSAVEDBY
  1
ezdxf
  9
$INSBASE
 10
0.0
 20
0.0
 30
0.0
  9
$EXTMIN
 10
1e+20
 20
1e+20
 30
1e+20
  9
$EXTMAX
 10
-1e+20
 20
-1e+20
 30
-1e+20
  9
$LIMMIN
 10
0.0
 20
0.0
  9
$LIMMAX
 10
420.0
 20
297.0
  9
$ORTHOMODE
 70
0
  9
$REGENMODE
 70
1
  9
$FILLMODE
 70
1
  9
$QTEXTMODE
 70
0
  9
$MIRRTEXT
 70
1
  9
$LTSCALE
 40
1.0
  9
$ATTMODE
 70
1
  9
$TEXTSIZE
 40
2.5
  9
$TRACEWID
 40
1.0
  9
$TEXTSTYLE
  7
OpenSans
  9
$CLAYER
  8
0
  9
$CELTYPE
  6
ByLayer
  9
$CECOLOR
 62
256
  9
$CELTSCALE
 40
1.0
  9
$DISPSILH
 70
0
  9
$DIMSCALE
 40
1.0
  9
$DIMASZ
 40
2.5
  9
$DIMEXO
 40
0.625
  9
$DIMDLI
 40
3.75
  9
$DIMRND
 40
0.0
  9
$DIMDLE
 40
0.0
  9
$DIMEXE
 40
1.25
  9
$DIMTP
 40
0.0
  9
$DIMTM
 40
0.0
  9
$DIMTXT
 40
2.5
  9
$DIMCEN
 40
2.5
  9
$DIMTSZ
 40
0.0
  9
$DIMTOL
 70
0
  9
$DIMLIM
 70
0
  9
$DIMTIH
 70
0
  9
$DIMTOH
 70
0
  9
$DIMSE1
 70
0
  9
$DIMSE2
 70
0
  9
$DIMTAD
 70
1
  9
$DIMZIN
 70
8
  9
$DIMBLK
  1

  9
$DIMASO
 70
1
  9
$DIMSHO
 70
1
  9
$DIMPOST
  1

  9
$DIMAPOST
  1

  9
$DIMALT
 70
0
  9
$DIMALTD
 70
3
  9
$DIMALTF
 40
0.03937007874
  9
$DIMLFAC
 40
1.0
  9
$DIMTOFL
 70
1
  9
$DIMTVP
 40
0.0
  9
$DIMTIX
 70
0
  9
$DIMSOXD
 70
0
  9
$DIMSAH
 70
0
  9
$DIMBLK1
  1

  9
$DIMBLK2
  1

  9
$DIMSTYLE
  2
ISO-25
  9
$DIMCLRD
 70
0
  9
$DIMCLRE
 70
0
  9
$DIMCLRT
 70
0
  9
$DIMTFAC
 40
1.0
  9
$DIMGAP
 40
0.625
  9
$DIMJUST
 70
0
  9
$DIMSD1
 70
0
  9
$DIMSD2
 70
0
  9
$DIMTOLJ
 70
0
  9
$DIMTZIN
 70
8
  9
$DIMALTZ
 70
0
  9
$DIMALTTZ
 70
0
  9
$DIMUPT
 70
0
  9
$DIMDEC
 70
2
  9
$DIMTDEC
 70
2
  9
$DIMALTU
 70
2
  9
$DIMALTTD
 70
3
  9
$DIMTXSTY
  7
Standard
  9
$DIMAUNIT
 70
0
  9
$DIMADEC
 70
0
  9
$DIMALTRND
 40
0.0
  9
$DIMAZIN
 70
0
  9
$DIMDSEP
 70
44
  9
$DIMATFIT
 70
3
  9
$DIMFRAC
 70
0
  9
$DIMLDRBLK
  1

  9
$DIMLUNIT
 70
2
  9
$DIMLWD
 70
-2
  9
$DIMLWE
 70
-2
  9
$DIMTMOVE
 70
0
  9
$DIMFXL
 40
1.0
  9
$DIMFXLON
 70
0
  9
$DIMJOGANG
 40
0.785398163397
  9
$DIMTFILL
 70
0
  9
$DIMTFILLCLR
 70
0
  9
$DIMARCSYM
 70
0
  9
$DIMLTYPE
  6

  9
$DIMLTEX1
  6

  9
$DIMLTEX2
  6

  9
$DIMTXTDIRECTION
 70
0
  9
$LUNITS
 70
2
  9
$LUPREC
 70
4
  9
$SKETCHINC
 40
1.0
  9
$FILLETRAD
 40
10.0
  9
$AUNITS
 70
0
  9
$AUPREC
 70
2
  9
$MENU
  1
.
  9
$ELEVATION
 40
0.0
  9
$PELEVATION
 40
0.0
  9
$THICKNESS
 40
0.0
  9
$LIMCHECK
 70
0
  9
$CHAMFERA
 40
0.0
  9
$CHAMFERB
 40
0.0
  9
$CHAMFERC
 40
0.0
  9
$CHAMFERD
 40
0.0
  9
$SKPOLY
 70
0
  9
$TDCREATE
 40
2461146.7787152776
  9
$TDUCREATE
 40
2458532.153996898
  9
$TDUPDATE
 40
2461146.7787152776
  9
$TDUUPDATE
 40
2458532.1544311
  9
$TDINDWG
 40
0.0
  9
$TDUSRTIMER
 40
0.0
  9
$USRTIMER
 70
1
  9
$ANGBASE
 50
0.0
  9
$ANGDIR
 70
0
  9
$PDMODE
 70
0
  9
$PDSIZE
 40
0.0
  9
$PLINEWID
 40
0.0
  9
$SPLFRAME
 70
0
  9
$SPLINETYPE
 70
6
  9
$SPLINESEGS
 70
8
  9
$HANDSEED
  5
13D
  9
$SURFTAB1
 70
6
  9
$SURFTAB2
 70
6
  9
$SURFTYPE
 70
6
  9
$SURFU
 70
6
  9
$SURFV
 70
6
  9
$UCSBASE
  2

  9
$UCSNAME
  2

  9
$UCSORG
 10
0.0
 20
0.0
 30
0.0
  9
$UCSXDIR
 10
1.0
 20
0.0
 30
0.0
  9
$UCSYDIR
 10
0.0
 20
1.0
 30
0.0
  9
$UCSORTHOREF
  2

  9
$UCSORTHOVIEW
 70
0
  9
$UCSORGTOP
 10
0.0
 20
0.0
 30
0.0
  9
$UCSORGBOTTOM
 10
0.0
 20
0.0
 30
0.0
  9
$UCSORGLEFT
 10
0.0
 20
0.0
 30
0.0
  9
$UCSORGRIGHT
 10
0.0
 20
0.0
 30
0.0
  9
$UCSORGFRONT
 10
0.0
 20
0.0
 30
0.0
  9
$UCSORGBACK
 10
0.0
 20
0.0
 30
0.0
  9
$PUCSBASE
  2

  9
$PUCSNAME
  2

  9
$PUCSORG
 10
0.0
 20
0.0
 30
0.0
  9
$PUCSXDIR
 10
1.0
 20
0.0
 30
0.0
  9
$PUCSYDIR
 10
0.0
 20
1.0
 30
0.0
  9
$PUCSORTHOREF
  2

  9
$PUCSORTHOVIEW
 70
0
  9
$PUCSORGTOP
 10
0.0
 20
0.0
 30
0.0
  9
$PUCSORGBOTTOM
 10
0.0
 20
0.0
 30
0.0
  9
$PUCSORGLEFT
 10
0.0
 20
0.0
 30
0.0
  9
$PUCSORGRIGHT
 10
0.0
 20
0.0
 30
0.0
  9
$PUCSORGFRONT
 10
0.0
 20
0.0
 30
0.0
  9
$PUCSORGBACK
 10
0.0
 20
0.0
 30
0.0
  9
$USERI1
 70
0
  9
$USERI2
 70
0
  9
$USERI3
 70
0
  9
$USERI4
 70
0
  9
$USERI5
 70
0
  9
$USERR1
 40
0.0
  9
$USERR2
 40
0.0
  9
$USERR3
 40
0.0
  9
$USERR4
 40
0.0
  9
$USERR5
 40
0.0
  9
$WORLDVIEW
 70
1
  9
$SHADEDGE
 70
3
  9
$SHADEDIF
 70
70
  9
$TILEMODE
 70
1
  9
$MAXACTVP
 70
64
  9
$PINSBASE
 10
0.0
 20
0.0
 30
0.0
  9
$PLIMCHECK
 70
0
  9
$PEXTMIN
 10
1e+20
 20
1e+20
 30
1e+20
  9
$PEXTMAX
 10
-1e+20
 20
-1e+20
 30
-1e+20
  9
$PLIMMIN
 10
-0.0
 20
-0.0
  9
$PLIMMAX
 10
297.0
 20
210.0
  9
$UNITMODE
 70
0
  9
$VISRETAIN
 70
1
  9
$PLINEGEN
 70
0
  9
$PSLTSCALE
 70
1
  9
$TREEDEPTH
 70
3020
  9
$CMLSTYLE
  2
Standard
  9
$CMLJUST
 70
0
  9
$CMLSCALE
 40
20.0
  9
$PROXYGRAPHICS
 70
1
  9
$MEASUREMENT
 70
1
  9
$CELWEIGHT
370
-1
  9
$ENDCAPS
280
0
  9
$JOINSTYLE
280
0
  9
$LWDISPLAY
290
0
  9
$INSUNITS
 70
4
  9
$HYPERLINKBASE
  1

  9
$STYLESHEET
  1

  9
$XEDIT
290
1
  9
$CEPSNTYPE
380
0
  9
$PSTYLEMODE
290
1
  9
$FINGERPRINTGUID
  2
{AA1192D3-25BA-40BA-9F55-A9A55A635867}
  9
$VERSIONGUID
  2
{53ED35B6-092D-41E4-B151-D56D402AA565}
  9
$EXTNAMES
290
1
  9
$PSVPSCALE
 40
0.0
  9
$OLESTARTUP
290
0
  9
$SORTENTS
280
127
  9
$INDEXCTL
280
0
  9
$HIDETEXT
280
1
  9
$XCLIPFRAME
280
1
  9
$HALOGAP
280
0
  9
$OBSCOLOR
 70
257
  9
$OBSLTYPE
280
0
  9
$INTERSECTIONDISPLAY
280
0
  9
$INTERSECTIONCOLOR
 70
257
  9
$DIMASSOC
280
2
  9
$PROJECTNAME
  1

  9
$CAMERADISPLAY
290
0
  9
$LENSLENGTH
 40
50.0
  9
$CAMERAHEIGHT
 40
0.0
  9
$STEPSPERSEC
 40
24.0
  9
$STEPSIZE
 40
100.0
  9
$3DDWFPREC
 40
2.0
  9
$PSOLWIDTH
 40
0.005
  9
$PSOLHEIGHT
 40
0.08
  9
$LOFTANG1
 40
1.570796326795
  9
$LOFTANG2
 40
1.570796326795
  9
$LOFTMAG1
 40
0.0
  9
$LOFTMAG2
 40
0.0
  9
$LOFTPARAM
 70
7
  9
$LOFTNORMALS
280
1
  9
$LATITUDE
 40
37.795
  9
$LONGITUDE
 40
-122.394
  9
$NORTHDIRECTION
 40
0.0
  9
$TIMEZONE
 70
-8000
  9
$LIGHTGLYPHDISPLAY
280
1
  9
$TILEMODELIGHTSYNCH
280
1
  9
$CMATERIAL
347
20
  9
$SOLIDHIST
280
0
  9
$SHOWHIST
280
1
  9
$DWFFRAME
280
2
  9
$DGNFRAME
280
2
  9
$REALWORLDSCALE
290
1
  9
$INTERFERECOLOR
 62
256
  9
$CSHADOW
280
0
  9
$SHADOWPLANELOCATION
 40
0.0
  0
ENDSEC
  0
SECTION
  2
CLASSES
  0
CLASS
  1
ACDBDICTIONARYWDFLT
  2
AcDbDictionaryWithDefault
  3
ObjectDBX Classes
 90
0
 91
0
280
0
281
0
  0
CLASS
  1
SUN
  2
AcDbSun
  3
SCENEOE
 90
1153
 91
0
280
0
281
0
  0
CLASS
  1
VISUALSTYLE
  2
AcDbVisualStyle
  3
ObjectDBX Classes
 90
4095
 91
0
280
0
281
0
  0
CLASS
  1
MATERIAL
  2
AcDbMaterial
  3
ObjectDBX Classes
 90
1153
 91
0
280
0
281
0
  0
CLASS
  1
SCALE
  2
AcDbScale
  3
ObjectDBX Classes
 90
1153
 91
0
280
0
281
0
  0
CLASS
  1
TABLESTYLE
  2
AcDbTableStyle
  3
ObjectDBX Classes
 90
4095
 91
0
280
0
281
0
  0
CLASS
  1
MLEADERSTYLE
  2
AcDbMLeaderStyle
  3
ACDB_MLEADERSTYLE_CLASS
 90
4095
 91
0
280
0
281
0
  0
CLASS
  1
DICTIONARYVAR
  2
AcDbDictionaryVar
  3
ObjectDBX Classes
 90
0
 91
0
280
0
281
0
  0
CLASS
  1
CELLSTYLEMAP
  2
AcDbCellStyleMap
  3
ObjectDBX Classes
 90
1152
 91
0
280
0
281
0
  0
CLASS
  1
MENTALRAYRENDERSETTINGS
  2
AcDbMentalRayRenderSettings
  3
SCENEOE
 90
1024
 91
0
280
0
281
0
  0
CLASS
  1
ACDBDETAILVIEWSTYLE
  2
AcDbDetailViewStyle
  3
ObjectDBX Classes
 90
1025
 91
0
280
0
281
0
  0
CLASS
  1
ACDBSECTIONVIEWSTYLE
  2
AcDbSectionViewStyle
  3
ObjectDBX Classes
 90
1025
 91
0
280
0
281
0
  0
CLASS
  1
RASTERVARIABLES
  2
AcDbRasterVariables
  3
ISM
 90
0
 91
0
280
0
281
0
  0
CLASS
  1
ACDBPLACEHOLDER
  2
AcDbPlaceHolder
  3
ObjectDBX Classes
 90
0
 91
0
280
0
281
0
  0
CLASS
  1
LAYOUT
  2
AcDbLayout
  3
ObjectDBX Classes
 90
0
 91
0
280
0
281
0
  0
ENDSEC
  0
SECTION
  2
TABLES
  0
TABLE
  2
VPORT
  5
8
330
0
100
AcDbSymbolTable
 70
1
  0
VPORT
  5
23
330
8
100
AcDbSymbolTableRecord
100
AcDbViewportTableRecord
  2
*Active
 70
0
 10
0.0
 20
0.0
 11
1.0
 21
1.0
 12
0.0
 22
0.0
 13
0.0
 23
0.0
 14
0.5
 24
0.5
 15
0.5
 25
0.5
 16
0.0
 26
0.0
 36
1.0
 17
0.0
 27
0.0
 37
0.0
 40
1000.0
 41
1.34
 42
50.0
 43
0.0
 44
0.0
 50
0.0
 51
0.0
 71
0
 72
1000
 73
1
 74
3
 75
0
 76
0
 77
0
 78
0
281
0
 65
0
146
0.0
  0
ENDTAB
  0
TABLE
  2
LTYPE
  5
2
330
0
100
AcDbSymbolTable
 70
21
  0
LTYPE
  5
24
330
2
100
AcDbSymbolTableRecord
100
AcDbLinetypeTableRecord
  2
ByBlock
 70
0
  3

 72
65
 73
0
 40
0.0
  0
LTYPE
  5
25
330
2
100
AcDbSymbolTableRecord
100
AcDbLinetypeTableRecord
  2
ByLayer
 70
0
  3

 72
65
 73
0
 40
0.0
  0
LTYPE
  5
26
330
2
100
AcDbSymbolTableRecord
100
AcDbLinetypeTableRecord
  2
Continuous
 70
0
  3

 72
65
 73
0
 40
0.0
  0
LTYPE
  5
57
330
2
100
AcDbSymbolTableRecord
100
AcDbLinetypeTableRecord
  2
CENTER
 70
0
  3
Center ____ _ ____ _ ____ _ ____ _ ____ _ ____
 72
65
 73
4
 40
5.08
 49
3.175
 74
0
 49
-0.635
 74
0
 49
0.635
 74
0
 49
-0.635
 74
0
  0
LTYPE
  5
58
330
2
100
AcDbSymbolTableRecord
100
AcDbLinetypeTableRecord
  2
CENTERX2
 70
0
  3
Center (2x) ________  __  ________  __  ________
 72
65
 73
4
 40
8.89
 49
6.35
 74
0
 49
-0.635
 74
0
 49
1.27
 74
0
 49
-0.635
 74
0
  0
LTYPE
  5
59
330
2
100
AcDbSymbolTableRecord
100
AcDbLinetypeTableRecord
  2
CENTER2
 70
0
  3
Center (.5x) ____ _ ____ _ ____ _ ____ _ ____
 72
65
 73
4
 40
2.54
 49
1.587
 74
0
 49
-0.318
 74
0
 49
0.318
 74
0
 49
-0.318
 74
0
  0
LTYPE
  5
5A
330
2
100
AcDbSymbolTableRecord
100
AcDbLinetypeTableRecord
  2
DASHED
 70
0
  3
Dashed __ __ __ __ __ __ __ __ __ __ __ __ __ _
 72
65
 73
2
 40
1.524
 49
1.27
 74
0
 49
-0.254
 74
0
  0
LTYPE
  5
5B
330
2
100
AcDbSymbolTableRecord
100
AcDbLinetypeTableRecord
  2
DASHEDX2
 70
0
  3
Dashed (2x) ____  ____  ____  ____  ____  ____
 72
65
 73
2
 40
3.048
 49
2.54
 74
0
 49
-0.508
 74
0
  0
LTYPE
  5
5C
330
2
100
AcDbSymbolTableRecord
100
AcDbLinetypeTableRecord
  2
DASHED2
 70
0
  3
Dashed (.5x) _ _ _ _ _ _ _ _ _ _ _ _ _ _
 72
65
 73
2
 40
0.762
 49
0.635
 74
0
 49
-0.127
 74
0
  0
LTYPE
  5
5D
330
2
100
AcDbSymbolTableRecord
100
AcDbLinetypeTableRecord
  2
PHANTOM
 70
0
  3
Phantom ______  __  __  ______  __  __  ______
 72
65
 73
6
 40
6.35
 49
3.175
 74
0
 49
-0.635
 74
0
 49
0.635
 74
0
 49
-0.635
 74
0
 49
0.635
 74
0
 49
-0.635
 74
0
  0
LTYPE
  5
5E
330
2
100
AcDbSymbolTableRecord
100
AcDbLinetypeTableRecord
  2
PHANTOMX2
 70
0
  3
Phantom (2x)____________    ____    ____    ____________
 72
65
 73
6
 40
10.795
 49
6.35
 74
0
 49
-0.635
 74
0
 49
1.27
 74
0
 49
-0.635
 74
0
 49
1.27
 74
0
 49
-0.635
 74
0
  0
LTYPE
  5
5F
330
2
100
AcDbSymbolTableRecord
100
AcDbLinetypeTableRecord
  2
PHANTOM2
 70
0
  3
Phantom (.5x) ___ _ _ ___ _ _ ___ _ _ ___ _ _ ___
 72
65
 73
6
 40
3.175
 49
1.587
 74
0
 49
-0.318
 74
0
 49
0.318
 74
0
 49
-0.318
 74
0
 49
0.318
 74
0
 49
-0.318
 74
0
  0
LTYPE
  5
60
330
2
100
AcDbSymbolTableRecord
100
AcDbLinetypeTableRecord
  2
DASHDOT
 70
0
  3
Dash dot __ . __ . __ . __ . __ . __ . __ . __
 72
65
 73
4
 40
3.556
 49
2.54
 74
0
 49
-0.508
 74
0
 49
0.0
 74
0
 49
-0.508
 74
0
  0
LTYPE
  5
61
330
2
100
AcDbSymbolTableRecord
100
AcDbLinetypeTableRecord
  2
DASHDOTX2
 70
0
  3
Dash dot (2x) ____  .  ____  .  ____  .  ____
 72
65
 73
4
 40
6.096
 49
5.08
 74
0
 49
-0.508
 74
0
 49
0.0
 74
0
 49
-0.508
 74
0
  0
LTYPE
  5
62
330
2
100
AcDbSymbolTableRecord
100
AcDbLinetypeTableRecord
  2
DASHDOT2
 70
0
  3
Dash dot (.5x) _ . _ . _ . _ . _ . _ . _ . _
 72
65
 73
4
 40
1.778
 49
1.27
 74
0
 49
-0.254
 74
0
 49
0.0
 74
0
 49
-0.254
 74
0
  0
LTYPE
  5
63
330
2
100
AcDbSymbolTableRecord
100
AcDbLinetypeTableRecord
  2
DOT
 70
0
  3
Dot .  .  .  .  .  .  .  .  .  .  .  .  .  .  .  .
 72
65
 73
2
 40
0.508
 49
0.0
 74
0
 49
-0.508
 74
0
  0
LTYPE
  5
64
330
2
100
AcDbSymbolTableRecord
100
AcDbLinetypeTableRecord
  2
DOTX2
 70
0
  3
Dot (2x) .    .    .    .    .    .    .    . 
 72
65
 73
2
 40
1.016
 49
0.0
 74
0
 49
-1.016
 74
0
  0
LTYPE
  5
65
330
2
100
AcDbSymbolTableRecord
100
AcDbLinetypeTableRecord
  2
DOT2
 70
0
  3
Dot (.5) . . . . . . . . . . . . . . . . . . . 
 72
65
 73
2
 40
0.254
 49
0.0
 74
0
 49
-0.254
 74
0
  0
LTYPE
  5
66
330
2
100
AcDbSymbolTableRecord
100
AcDbLinetypeTableRecord
  2
DIVIDE
 70
0
  3
Divide __ . . __ . . __ . . __ . . __ . . __
 72
65
 73
6
 40
4.064
 49
2.54
 74
0
 49
-0.508
 74
0
 49
0.0
 74
0
 49
-0.508
 74
0
 49
0.0
 74
0
 49
-0.508
 74
0
  0
LTYPE
  5
67
330
2
100
AcDbSymbolTableRecord
100
AcDbLinetypeTableRecord
  2
DIVIDEX2
 70
0
  3
Divide (2x) ____  . .  ____  . .  ____  . .  ____
 72
65
 73
6
 40
6.604
 49
5.08
 74
0
 49
-0.508
 74
0
 49
0.0
 74
0
 49
-0.508
 74
0
 49
0.0
 74
0
 49
-0.508
 74
0
  0
LTYPE
  5
68
330
2
100
AcDbSymbolTableRecord
100
AcDbLinetypeTableRecord
  2
DIVIDE2
 70
0
  3
Divide(.5x) _ . _ . _ . _ . _ . _ . _ . _
 72
65
 73
6
 40
2.032
 49
1.27
 74
0
 49
-0.254
 74
0
 49
0.0
 74
0
 49
-0.254
 74
0
 49
0.0
 74
0
 49
-0.254
 74
0
  0
ENDTAB
  0
TABLE
  2
LAYER
  5
1
330
0
100
AcDbSymbolTable
 70
26
  0
LAYER
  5
27
330
1
100
AcDbSymbolTableRecord
100
AcDbLayerTableRecord
  2
0
 70
0
 62
7
  6
Continuous
370
-3
390
13
347
21
  0
LAYER
  5
28
330
1
100
AcDbSymbolTableRecord
100
AcDbLayerTableRecord
  2
Defpoints
 70
0
 62
7
  6
Continuous
290
0
370
-3
390
13
347
21
  0
LAYER
  5
48
330
1
100
AcDbSymbolTableRecord
100
AcDbLayerTableRecord
  2
LD_SYMBOL
 70
0
 62
7
  6
Continuous
370
-3
390
13
347
21
  0
LAYER
  5
49
330
1
100
AcDbSymbolTableRecord
100
AcDbLayerTableRecord
  2
LD_PORT
 70
0
 62
7
  6
Continuous
370
-3
390
13
347
21
  0
LAYER
  5
4A
330
1
100
AcDbSymbolTableRecord
100
AcDbLayerTableRecord
  2
LD_PORT_IN0_MULTI
 70
0
 62
7
  6
Continuous
370
-3
390
13
347
21
  0
LAYER
  5
4B
330
1
100
AcDbSymbolTableRecord
100
AcDbLayerTableRecord
  2
LD_PORT_OUT0_MULTI
 70
0
 62
7
  6
Continuous
370
-3
390
13
347
21
  0
LAYER
  5
4C
330
1
100
AcDbSymbolTableRecord
100
AcDbLayerTableRecord
  2
LD_WIRE
 70
0
 62
7
  6
Continuous
370
-3
390
13
347
21
  0
LAYER
  5
4D
330
1
100
AcDbSymbolTableRecord
100
AcDbLayerTableRecord
  2
LD_WIRE_BRIDGE
 70
0
 62
7
  6
Continuous
370
-3
390
13
347
21
  0
LAYER
  5
4E
330
1
100
AcDbSymbolTableRecord
100
AcDbLayerTableRecord
  2
LD_TEXT
 70
0
 62
7
  6
Continuous
370
-3
390
13
347
21
  0
LAYER
  5
4F
330
1
100
AcDbSymbolTableRecord
100
AcDbLayerTableRecord
  2
LD_ANNOTATION
 70
0
 62
8
  6
Continuous
370
-3
390
13
347
21
  0
LAYER
  5
50
330
1
100
AcDbSymbolTableRecord
100
AcDbLayerTableRecord
  2
LD_FRAME
 70
0
 62
7
  6
Continuous
370
-3
390
13
347
21
  0
LAYER
  5
51
330
1
100
AcDbSymbolTableRecord
100
AcDbLayerTableRecord
  2
LD_FRAME_TEXT
 70
0
 62
8
  6
Continuous
370
-3
390
13
347
21
  0
LAYER
  5
52
330
1
100
AcDbSymbolTableRecord
100
AcDbLayerTableRecord
  2
LD_VPORT
 70
0
 62
8
  6
Continuous
370
-3
390
13
347
21
  0
LAYER
  5
53
330
1
100
AcDbSymbolTableRecord
100
AcDbLayerTableRecord
  2
LD_TOC
 70
0
 62
8
  6
Continuous
370
-3
390
13
347
21
  0
LAYER
  5
54
330
1
100
AcDbSymbolTableRecord
100
AcDbLayerTableRecord
  2
LD_CONTENTS_AREA
 70
0
 62
8
  6
Continuous
370
-3
390
13
347
21
  0
LAYER
  5
55
330
1
100
AcDbSymbolTableRecord
100
AcDbLayerTableRecord
  2
LD_CONTENTS_FRAME
 70
0
 62
7
  6
Continuous
370
-3
390
13
347
21
  0
LAYER
  5
56
330
1
100
AcDbSymbolTableRecord
100
AcDbLayerTableRecord
  2
LD_CONTENTS_TEXT
 70
0
 62
7
  6
Continuous
370
-3
390
13
347
21
  0
LAYER
  5
86
330
1
100
AcDbSymbolTableRecord
100
AcDbLayerTableRecord
  2
VIEWPORTS
 70
0
 62
-7
  6
Continuous
370
-3
390
13
347
21
  0
LAYER
  5
F0
330
1
100
AcDbSymbolTableRecord
100
AcDbLayerTableRecord
  2
LD_PORT_IN0_VALUE
 70
0
 62
7
  6
Continuous
370
-3
390
F
347
47
  0
LAYER
  5
F1
330
1
100
AcDbSymbolTableRecord
100
AcDbLayerTableRecord
  2
LD_PORT_OUT0_LOGIC
 70
0
 62
7
  6
Continuous
370
-3
390
F
347
47
348
0
  0
LAYER
  5
F2
330
1
100
AcDbSymbolTableRecord
100
AcDbLayerTableRecord
  2
LD_PORT_IN1_MULTI
 70
0
 62
7
  6
Continuous
370
-3
390
F
347
47
  0
LAYER
  5
F3
330
1
100
AcDbSymbolTableRecord
100
AcDbLayerTableRecord
  2
LD_PORT_IN1_LOGIC
 70
0
 62
80
  6
Continuous
370
-3
390
F
347
47
348
0
  0
LAYER
  5
F4
330
1
100
AcDbSymbolTableRecord
100
AcDbLayerTableRecord
  2
LD_PORT_IN0_LOGIC
 70
0
 62
7
  6
Continuous
370
-3
390
F
347
47
348
0
  0
LAYER
  5
135
330
1
100
AcDbSymbolTableRecord
100
AcDbLayerTableRecord
  2
LD_WIRE_LOGIC
 70
0
 62
7
  6
CONTINUOUS
370
-3
390
13
347
21
  0
LAYER
  5
136
330
1
100
AcDbSymbolTableRecord
100
AcDbLayerTableRecord
  2
LD_WIRE_VALUE
 70
0
 62
7
  6
DASHED
370
-3
390
13
347
21
  0
LAYER
  5
137
330
1
100
AcDbSymbolTableRecord
100
AcDbLayerTableRecord
  2
LD_DOC_META
 70
0
 62
8
  6
Continuous
370
-3
390
13
347
21
  0
ENDTAB
  0
TABLE
  2
STYLE
  5
5
330
0
100
AcDbSymbolTable
 70
26
  0
STYLE
  5
29
330
5
100
AcDbSymbolTableRecord
100
AcDbTextStyleTableRecord
  2
Standard
 70
0
 40
0.0
 41
1.0
 50
0.0
 71
0
 42
2.5
  3
txt
  4

  0
STYLE
  5
2F
330
5
100
AcDbSymbolTableRecord
100
AcDbTextStyleTableRecord
  2
OpenSans-Light
 70
0
 40
0.0
 41
1.0
 50
0.0
 71
0
 42
2.5
  3
OpenSans-Light.ttf
  4

  0
STYLE
  5
30
330
5
100
AcDbSymbolTableRecord
100
AcDbTextStyleTableRecord
  2
OpenSans-Light-Italic
 70
0
 40
0.0
 41
1.0
 50
0.0
 71
0
 42
2.5
  3
OpenSans-LightItalic.ttf
  4

  0
STYLE
  5
31
330
5
100
AcDbSymbolTableRecord
100
AcDbTextStyleTableRecord
  2
OpenSans
 70
0
 40
0.0
 41
1.0
 50
0.0
 71
0
 42
2.5
  3
OpenSans-Regular.ttf
  4

  0
STYLE
  5
32
330
5
100
AcDbSymbolTableRecord
100
AcDbTextStyleTableRecord
  2
OpenSans-Italic
 70
0
 40
0.0
 41
1.0
 50
0.0
 71
0
 42
2.5
  3
OpenSans-Italic.ttf
  4

  0
STYLE
  5
33
330
5
100
AcDbSymbolTableRecord
100
AcDbTextStyleTableRecord
  2
OpenSans-SemiBold
 70
0
 40
0.0
 41
1.0
 50
0.0
 71
0
 42
2.5
  3
OpenSans-SemiBold.ttf
  4

  0
STYLE
  5
34
330
5
100
AcDbSymbolTableRecord
100
AcDbTextStyleTableRecord
  2
OpenSans-SemiBoldItalic
 70
0
 40
0.0
 41
1.0
 50
0.0
 71
0
 42
2.5
  3
OpenSans-SemiBoldItalic.ttf
  4

  0
STYLE
  5
35
330
5
100
AcDbSymbolTableRecord
100
AcDbTextStyleTableRecord
  2
OpenSans-Bold
 70
0
 40
0.0
 41
1.0
 50
0.0
 71
0
 42
2.5
  3
OpenSans-Bold.ttf
  4

  0
STYLE
  5
36
330
5
100
AcDbSymbolTableRecord
100
AcDbTextStyleTableRecord
  2
OpenSans-BoldItalic
 70
0
 40
0.0
 41
1.0
 50
0.0
 71
0
 42
2.5
  3
OpenSans-BoldItalic.ttf
  4

  0
STYLE
  5
37
330
5
100
AcDbSymbolTableRecord
100
AcDbTextStyleTableRecord
  2
OpenSans-ExtraBold
 70
0
 40
0.0
 41
1.0
 50
0.0
 71
0
 42
2.5
  3
OpenSans-ExtraBold.ttf
  4

  0
STYLE
  5
38
330
5
100
AcDbSymbolTableRecord
100
AcDbTextStyleTableRecord
  2
OpenSans-ExtraBoldItalic
 70
0
 40
0.0
 41
1.0
 50
0.0
 71
0
 42
2.5
  3
OpenSans-ExtraBoldItalic.ttf
  4

  0
STYLE
  5
39
330
5
100
AcDbSymbolTableRecord
100
AcDbTextStyleTableRecord
  2
OpenSansCondensed-Bold
 70
0
 40
0.0
 41
1.0
 50
0.0
 71
0
 42
2.5
  3
OpenSansCondensed-Bold.ttf
  4

  0
STYLE
  5
3A
330
5
100
AcDbSymbolTableRecord
100
AcDbTextStyleTableRecord
  2
OpenSansCondensed-Light
 70
0
 40
0.0
 41
1.0
 50
0.0
 71
0
 42
2.5
  3
OpenSansCondensed-Light.ttf
  4

  0
STYLE
  5
3B
330
5
100
AcDbSymbolTableRecord
100
AcDbTextStyleTableRecord
  2
OpenSansCondensed-Italic
 70
0
 40
0.0
 41
1.0
 50
0.0
 71
0
 42
2.5
  3
OpenSansCondensed-LightItalic.ttf
  4

  0
STYLE
  5
3C
330
5
100
AcDbSymbolTableRecord
100
AcDbTextStyleTableRecord
  2
LiberationSans
 70
0
 40
0.0
 41
1.0
 50
0.0
 71
0
 42
2.5
  3
LiberationSans-Regular.ttf
  4

  0
STYLE
  5
3D
330
5
100
AcDbSymbolTableRecord
100
AcDbTextStyleTableRecord
  2
LiberationSans-Bold
 70
0
 40
0.0
 41
1.0
 50
0.0
 71
0
 42
2.5
  3
LiberationSans-Bold.ttf
  4

  0
STYLE
  5
3E
330
5
100
AcDbSymbolTableRecord
100
AcDbTextStyleTableRecord
  2
LiberationSans-BoldItalic
 70
0
 40
0.0
 41
1.0
 50
0.0
 71
0
 42
2.5
  3
LiberationSans-BoldItalic.ttf
  4

  0
STYLE
  5
3F
330
5
100
AcDbSymbolTableRecord
100
AcDbTextStyleTableRecord
  2
LiberationSans-Italic
 70
0
 40
0.0
 41
1.0
 50
0.0
 71
0
 42
2.5
  3
LiberationSans-Italic.ttf
  4

  0
STYLE
  5
40
330
5
100
AcDbSymbolTableRecord
100
AcDbTextStyleTableRecord
  2
LiberationSerif
 70
0
 40
0.0
 41
1.0
 50
0.0
 71
0
 42
2.5
  3
LiberationSerif-Regular.ttf
  4

  0
STYLE
  5
41
330
5
100
AcDbSymbolTableRecord
100
AcDbTextStyleTableRecord
  2
LiberationSerif-Bold
 70
0
 40
0.0
 41
1.0
 50
0.0
 71
0
 42
2.5
  3
LiberationSerif-Bold.ttf
  4

  0
STYLE
  5
42
330
5
100
AcDbSymbolTableRecord
100
AcDbTextStyleTableRecord
  2
LiberationSerif-BoldItalic
 70
0
 40
0.0
 41
1.0
 50
0.0
 71
0
 42
2.5
  3
LiberationSerif-BoldItalic.ttf
  4

  0
STYLE
  5
43
330
5
100
AcDbSymbolTableRecord
100
AcDbTextStyleTableRecord
  2
LiberationSerif-Italic
 70
0
 40
0.0
 41
1.0
 50
0.0
 71
0
 42
2.5
  3
LiberationSerif-Italic.ttf
  4

  0
STYLE
  5
44
330
5
100
AcDbSymbolTableRecord
100
AcDbTextStyleTableRecord
  2
LiberationMono
 70
0
 40
0.0
 41
1.0
 50
0.0
 71
0
 42
2.5
  3
LiberationMono-Regular.ttf
  4

  0
STYLE
  5
45
330
5
100
AcDbSymbolTableRecord
100
AcDbTextStyleTableRecord
  2
LiberationMono-Bold
 70
0
 40
0.0
 41
1.0
 50
0.0
 71
0
 42
2.5
  3
LiberationMono-Bold.ttf
  4

  0
STYLE
  5
46
330
5
100
AcDbSymbolTableRecord
100
AcDbTextStyleTableRecord
  2
LiberationMono-BoldItalic
 70
0
 40
0.0
 41
1.0
 50
0.0
 71
0
 42
2.5
  3
LiberationMono-BoldItalic.ttf
  4

  0
STYLE
  5
47
330
5
100
AcDbSymbolTableRecord
100
AcDbTextStyleTableRecord
  2
LiberationMono-Italic
 70
0
 40
0.0
 41
1.0
 50
0.0
 71
0
 42
2.5
  3
LiberationMono-Italic.ttf
  4

  0
ENDTAB
  0
TABLE
  2
VIEW
  5
7
330
0
100
AcDbSymbolTable
 70
0
  0
ENDTAB
  0
TABLE
  2
UCS
  5
6
330
0
100
AcDbSymbolTable
 70
0
  0
ENDTAB
  0
TABLE
  2
APPID
  5
3
330
0
100
AcDbSymbolTable
 70
4
  0
APPID
  5
2A
330
3
100
AcDbSymbolTableRecord
100
AcDbRegAppTableRecord
  2
ACAD
 70
0
  0
APPID
  5
69
330
3
100
AcDbSymbolTableRecord
100
AcDbRegAppTableRecord
  2
LD_APP
 70
0
  0
APPID
  5
12D
330
3
100
AcDbSymbolTableRecord
100
AcDbRegAppTableRecord
  2
HATCHBACKGROUNDCOLOR
 70
0
  0
APPID
  5
12E
330
3
100
AcDbSymbolTableRecord
100
AcDbRegAppTableRecord
  2
EZDXF
 70
0
  0
ENDTAB
  0
TABLE
  2
DIMSTYLE
  5
4
330
0
100
AcDbSymbolTable
 70
1
100
AcDbDimStyleTable
  0
DIMSTYLE
105
2B
330
4
100
AcDbSymbolTableRecord
100
AcDbDimStyleTableRecord
  2
Standard
 70
0
 40
1.0
 41
2.5
 42
0.625
 43
3.75
 44
1.25
 45
0.0
 46
0.0
 47
0.0
 48
0.0
 49
2.5
140
2.5
141
2.5
142
0.0
143
0.03937007874
144
1.0
145
0.0
146
1.0
147
0.625
148
0.0
 69
0
 70
0
 71
0
 72
0
 73
0
 74
0
 75
0
 76
0
 77
1
 78
8
 79
3
170
0
171
3
172
1
173
0
174
0
175
0
176
0
177
0
178
0
179
2
271
2
272
2
273
2
274
3
275
0
276
0
277
2
278
44
279
0
280
0
281
0
282
0
283
0
284
8
285
0
286
0
288
0
289
3
290
0
371
-2
372
-2
  0
ENDTAB
  0
TABLE
  2
BLOCK_RECORD
  5
9
330
0
100
AcDbSymbolTable
 70
17
  0
BLOCK_RECORD
  5
17
330
9
100
AcDbSymbolTableRecord
100
AcDbBlockTableRecord
  2
*Model_Space
340
1A
 70
0
280
1
281
0
  0
BLOCK_RECORD
  5
1B
330
9
100
AcDbSymbolTableRecord
100
AcDbBlockTableRecord
  2
*Paper_Space
340
1E
 70
0
280
1
281
0
  0
BLOCK_RECORD
  5
6A
330
9
100
AcDbSymbolTableRecord
100
AcDbBlockTableRecord
  2
LD_PAPER_FRAME
340
0
 70
0
280
1
281
0
  0
BLOCK_RECORD
  5
72
330
9
100
AcDbSymbolTableRecord
100
AcDbBlockTableRecord
  2
CONTENTS_HEADER
340
0
 70
0
280
1
281
0
  0
BLOCK_RECORD
  5
79
330
9
100
AcDbSymbolTableRecord
100
AcDbBlockTableRecord
  2
CONTENTS_ROW
340
0
 70
0
280
1
281
0
  0
BLOCK_RECORD
  5
88
330
9
100
AcDbSymbolTableRecord
100
AcDbBlockTableRecord
  2
_ARCHTICK
340
0
 70
0
280
1
281
0
  0
BLOCK_RECORD
  5
8C
330
9
100
AcDbSymbolTableRecord
100
AcDbBlockTableRecord
  2
FLIPFLOP(SR)
340
0
 70
0
280
1
281
0
  0
BLOCK_RECORD
  5
9E
330
9
100
AcDbSymbolTableRecord
100
AcDbBlockTableRecord
  2
PAGE_FROM
340
0
 70
0
280
1
281
0
  0
BLOCK_RECORD
  5
AA
330
9
100
AcDbSymbolTableRecord
100
AcDbBlockTableRecord
  2
PAGE_TO
340
0
 70
0
280
1
281
0
  0
BLOCK_RECORD
  5
B6
330
9
100
AcDbSymbolTableRecord
100
AcDbBlockTableRecord
  2
_None
340
0
 70
0
280
1
281
0
  0
BLOCK_RECORD
  5
B9
330
9
100
AcDbSymbolTableRecord
100
AcDbBlockTableRecord
  2
ALARM1
340
0
 70
0
280
1
281
0
  0
BLOCK_RECORD
  5
C7
330
9
100
AcDbSymbolTableRecord
100
AcDbBlockTableRecord
  2
NOT
340
0
 70
0
280
1
281
0
  0
BLOCK_RECORD
  5
D0
330
9
100
AcDbSymbolTableRecord
100
AcDbBlockTableRecord
  2
ALARM2
340
0
 70
0
280
1
281
0
  0
BLOCK_RECORD
  5
DF
330
9
100
AcDbSymbolTableRecord
100
AcDbBlockTableRecord
  2
LD_CHECKPOINT
340
0
 70
0
280
1
281
0
  0
BLOCK_RECORD
  5
E5
330
9
100
AcDbSymbolTableRecord
100
AcDbBlockTableRecord
  2
COMPARE
340
0
 70
0
280
1
281
0
  0
BLOCK_RECORD
  5
F5
330
9
100
AcDbSymbolTableRecord
100
AcDbBlockTableRecord
  2
LD_WIRE_BRANCH
340
0
 70
0
280
1
281
0
  0
BLOCK_RECORD
  5
FD
330
9
100
AcDbSymbolTableRecord
100
AcDbBlockTableRecord
  2
AND_2
340
0
 70
0
280
1
281
0
  0
ENDTAB
  0
ENDSEC
  0
SECTION
  2
BLOCKS
  0
BLOCK
  5
18
330
17
100
AcDbEntity
  8
0
100
AcDbBlockBegin
  2
*Model_Space
 70
0
 10
0.0
 20
0.0
 30
0.0
  3
*Model_Space
  1

  0
ENDBLK
  5
19
330
17
100
AcDbEntity
  8
0
100
AcDbBlockEnd
  0
BLOCK
  5
1C
330
1B
100
AcDbEntity
  8
0
100
AcDbBlockBegin
  2
*Paper_Space
 70
0
 10
0.0
 20
0.0
 30
0.0
  3
*Paper_Space
  1

  0
ENDBLK
  5
1D
330
1B
100
AcDbEntity
  8
0
100
AcDbBlockEnd
  0
BLOCK
  5
6B
330
6A
100
AcDbEntity
  8
0
100
AcDbBlockBegin
  2
LD_PAPER_FRAME
 70
2
 10
0.0
 20
0.0
 30
0.0
  3
LD_PAPER_FRAME
  1

  0
LWPOLYLINE
  5
6D
330
6A
100
AcDbEntity
  8
LD_FRAME
100
AcDbPolyline
 90
4
 70
1
 10
0.0
 20
0.0
 10
297.0
 20
0.0
 10
297.0
 20
210.0
 10
0.0
 20
210.0
  0
ATTDEF
  5
6E
330
6A
100
AcDbEntity
  8
LD_FRAME_TEXT
100
AcDbText
 10
14.0
 20
22.0
 30
0.0
 40
2.5
  1
{{DWG_NO}}
100
AcDbAttributeDefinition
  3

  2
DWG_NO
 70
0
  0
ATTDEF
  5
6F
330
6A
100
AcDbEntity
  8
LD_FRAME_TEXT
100
AcDbText
 10
98.0
 20
22.0
 30
0.0
 40
2.5
  1
{{PAGE_NAME}}
100
AcDbAttributeDefinition
  3

  2
PAGE_NAME
 70
0
  0
ATTDEF
  5
70
330
6A
100
AcDbEntity
  8
LD_FRAME_TEXT
100
AcDbText
 10
176.0
 20
22.0
 30
0.0
 40
2.5
  1
{{PAGE_DESC}}
100
AcDbAttributeDefinition
  3

  2
PAGE_DESC
 70
0
  0
ATTDEF
  5
71
330
6A
100
AcDbEntity
  8
LD_FRAME_TEXT
100
AcDbText
 10
283.0
 20
22.0
 30
0.0
 40
2.5
  1
Rev: {{PAGE_REV}}
 72
2
100
AcDbAttributeDefinition
  3

  2
PAGE_REV
 70
0
  0
ENDBLK
  5
6C
330
6A
100
AcDbEntity
  8
0
100
AcDbBlockEnd
  0
BLOCK
  5
73
330
72
100
AcDbEntity
  8
0
100
AcDbBlockBegin
  2
CONTENTS_HEADER
 70
2
 10
0.0
 20
0.0
 30
0.0
  3
CONTENTS_HEADER
  1

  0
LWPOLYLINE
  5
75
330
72
100
AcDbEntity
  8
LD_CONTENTS_FRAME
100
AcDbPolyline
 90
4
 70
1
 10
0.0
 20
0.0
 10
60.0
 20
0.0
 10
60.0
 20
-8.0
 10
0.0
 20
-8.0
  0
ATTDEF
  5
76
330
72
100
AcDbEntity
  8
LD_CONTENTS_TEXT
100
AcDbText
 10
1.63
 20
-5.25
 30
0.0
 40
2.5
  1
番号
100
AcDbAttributeDefinition
  3

  2
PAGE_NAME
 70
0
  0
ATTDEF
  5
77
330
72
100
AcDbEntity
  8
LD_CONTENTS_TEXT
100
AcDbText
 10
13.47
 20
-5.25
 30
0.0
 40
2.5
  1
説明
100
AcDbAttributeDefinition
  3

  2
PAGE_DESC
 70
0
  0
ATTDEF
  5
78
330
72
100
AcDbEntity
  8
LD_CONTENTS_TEXT
100
AcDbText
 10
52.5
 20
-5.19
 30
0.0
 40
2.5
  1
改訂
100
AcDbAttributeDefinition
  3

  2
PAGE_REV
 70
0
  0
ENDBLK
  5
74
330
72
100
AcDbEntity
  8
0
100
AcDbBlockEnd
  0
BLOCK
  5
7A
330
79
100
AcDbEntity
  8
0
100
AcDbBlockBegin
  2
CONTENTS_ROW
 70
2
 10
0.0
 20
0.0
 30
0.0
  3
CONTENTS_ROW
  1

  0
LWPOLYLINE
  5
7C
330
79
100
AcDbEntity
  8
LD_CONTENTS_FRAME
100
AcDbPolyline
 90
4
 70
1
 10
0.0
 20
0.0
 10
60.0
 20
0.0
 10
60.0
 20
-8.0
 10
0.0
 20
-8.0
  0
ATTDEF
  5
7D
330
79
100
AcDbEntity
  8
LD_CONTENTS_TEXT
100
AcDbText
 10
1.63
 20
-5.25
 30
0.0
 40
2.5
  1
{{PAGE_NAME}}
100
AcDbAttributeDefinition
  3

  2
PAGE_NAME
 70
0
  0
ATTDEF
  5
7E
330
79
100
AcDbEntity
  8
LD_CONTENTS_TEXT
100
AcDbText
 10
13.47
 20
-5.25
 30
0.0
 40
2.5
  1
{{PAGE_DESC}}
100
AcDbAttributeDefinition
  3

  2
PAGE_DESC
 70
0
  0
ATTDEF
  5
7F
330
79
100
AcDbEntity
  8
LD_CONTENTS_TEXT
100
AcDbText
 10
52.5
 20
-5.19
 30
0.0
 40
2.5
  1
{{PAGE_REV}}
100
AcDbAttributeDefinition
  3

  2
PAGE_REV
 70
0
  0
ENDBLK
  5
7B
330
79
100
AcDbEntity
  8
0
100
AcDbBlockEnd
  0
BLOCK
  5
89
330
88
100
AcDbEntity
  8
0
100
AcDbBlockBegin
  2
_ARCHTICK
 70
0
 10
0.0
 20
0.0
 30
0.0
  3
_ARCHTICK
  1

  0
LWPOLYLINE
  5
8B
330
88
100
AcDbEntity
  8
0
  6
ByBlock
 62
0
100
AcDbPolyline
 90
2
 70
0
 43
0.15
 10
-0.5
 20
-0.5
 10
0.5
 20
0.5
  0
ENDBLK
  5
8A
330
88
100
AcDbEntity
  8
0
100
AcDbBlockEnd
  0
BLOCK
  5
8D
330
8C
100
AcDbEntity
  8
0
100
AcDbBlockBegin
  2
FLIPFLOP(SR)
 70
2
 10
0.0
 20
0.0
 30
0.0
  3
FLIPFLOP(SR)
  1

  0
POINT
  5
8F
330
8C
100
AcDbEntity
  8
LD_PORT_IN0_LOGIC
100
AcDbPoint
 10
-5.0
 20
-9.0
 30
0.0
  0
LINE
  5
90
330
8C
100
AcDbEntity
  8
LD_SYMBOL
100
AcDbLine
 10
-5.0
 20
-3.0
 30
0.0
 11
0.0
 21
-3.0
 31
0.0
  0
POINT
  5
91
330
8C
100
AcDbEntity
  8
LD_PORT_IN1_LOGIC
100
AcDbPoint
 10
-5.0
 20
-3.0
 30
0.0
  0
LINE
  5
92
330
8C
100
AcDbEntity
  8
LD_SYMBOL
100
AcDbLine
 10
0.0
 20
-12.0
 30
0.0
 11
5.0
 21
-12.0
 31
0.0
  0
LINE
  5
93
330
8C
100
AcDbEntity
  8
LD_SYMBOL
100
AcDbLine
 10
0.0
 20
0.0
 30
0.0
 11
5.0
 21
0.0
 31
0.0
  0
LINE
  5
94
330
8C
100
AcDbEntity
  8
LD_SYMBOL
100
AcDbLine
 10
0.0
 20
-12.0
 30
0.0
 11
0.0
 21
0.0
 31
0.0
  0
LINE
  5
95
330
8C
100
AcDbEntity
  8
LD_SYMBOL
100
AcDbLine
 10
5.0
 20
-12.0
 30
0.0
 11
5.0
 21
0.0
 31
0.0
  0
LINE
  5
96
330
8C
100
AcDbEntity
  8
LD_SYMBOL
100
AcDbLine
 10
5.0
 20
-6.0
 30
0.0
 11
0.0
 21
-6.0
 31
0.0
  0
POINT
  5
97
330
8C
100
AcDbEntity
  8
LD_PORT_OUT0_LOGIC
100
AcDbPoint
 10
10.0
 20
-3.0
 30
0.0
  0
LINE
  5
98
330
8C
100
AcDbEntity
  8
LD_SYMBOL
100
AcDbLine
 10
5.0
 20
-3.0
 30
0.0
 11
10.0
 21
-3.0
 31
0.0
  0
LINE
  5
99
330
8C
100
AcDbEntity
  8
LD_SYMBOL
100
AcDbLine
 10
-5.0
 20
-9.0
 30
0.0
 11
0.0
 21
-9.0
 31
0.0
  0
ATTDEF
  5
9A
330
8C
100
AcDbEntity
  8
LD_TEXT
100
AcDbText
 10
0.702864352344
 20
-9.458720318723
 30
0.0
 40
0.85
  1
R
100
AcDbAttributeDefinition
  3

  2
STATIC_LABEL1
 70
0
  0
ATTDEF
  5
9B
330
8C
100
AcDbEntity
  8
LD_TEXT
100
AcDbText
 10
0.5
 20
-11.5
 30
0.0
 40
0.5
  1

100
AcDbAttributeDefinition
  3

  2
LABEL0
 70
0
  0
ATTDEF
  5
9C
330
8C
100
AcDbEntity
  8
LD_TEXT
100
AcDbText
 10
0.542107526562
 20
-3.373430129906
 30
0.0
 40
0.85
  1
S
100
AcDbAttributeDefinition
  3

  2
STATIC_LABEL0
 70
0
  0
ATTDEF
  5
9D
330
8C
100
AcDbEntity
  8
LD_TEXT
100
AcDbText
 10
0.375
 20
-12.950000000001
 30
0.0
 40
0.65
  1

100
AcDbAttributeDefinition
  3

  2
SYM
 70
0
  0
ENDBLK
  5
8E
330
8C
100
AcDbEntity
  8
0
100
AcDbBlockEnd
  0
BLOCK
  5
9F
330
9E
100
AcDbEntity
  8
0
100
AcDbBlockBegin
  2
PAGE_FROM
 70
2
 10
0.0
 20
0.0
 30
0.0
  3
PAGE_FROM
  1

  0
LINE
  5
A1
330
9E
100
AcDbEntity
  8
LD_SYMBOL
100
AcDbLine
 10
0.0
 20
-2.0
 30
0.0
 11
8.580000000002
 21
-2.0
 31
0.0
  0
LINE
  5
A2
330
9E
100
AcDbEntity
  8
LD_SYMBOL
100
AcDbLine
 10
8.580000000002
 20
0.0
 30
0.0
 11
0.0
 21
0.0
 31
0.0
  0
LINE
  5
A3
330
9E
100
AcDbEntity
  8
LD_SYMBOL
100
AcDbLine
 10
10.0
 20
-1.0
 30
0.0
 11
8.580000000002
 21
0.0
 31
0.0
  0
LINE
  5
A4
330
9E
100
AcDbEntity
  8
LD_SYMBOL
100
AcDbLine
 10
10.0
 20
-1.0
 30
0.0
 11
8.580000000002
 21
-2.0
 31
0.0
  0
LINE
  5
A5
330
9E
100
AcDbEntity
  8
LD_SYMBOL
100
AcDbLine
 10
1.419999999998
 20
-1.0
 30
0.0
 11
0.0
 21
0.0
 31
0.0
  0
LINE
  5
A6
330
9E
100
AcDbEntity
  8
LD_SYMBOL
100
AcDbLine
 10
1.419999999998
 20
-1.0
 30
0.0
 11
0.0
 21
-2.0
 31
0.0
  0
LINE
  5
A7
330
9E
100
AcDbEntity
  8
LD_SYMBOL
100
AcDbLine
 10
1.419999999998
 20
-1.0
 30
0.0
 11
-2.0
 21
-1.0
 31
0.0
  0
POINT
  5
A8
330
9E
100
AcDbEntity
  8
LD_PORT_IN1_LOGIC
100
AcDbPoint
 10
-2.0
 20
-1.0
 30
0.0
  0
ATTDEF
  5
A9
330
9E
100
AcDbEntity
  8
LD_TEXT
100
AcDbText
 10
2.522491505857
 20
-1.497127430332
 30
0.0
 40
1.0
  1

100
AcDbAttributeDefinition
  3

  2
SYM
 70
0
  0
ENDBLK
  5
A0
330
9E
100
AcDbEntity
  8
0
100
AcDbBlockEnd
  0
BLOCK
  5
AB
330
AA
100
AcDbEntity
  8
0
100
AcDbBlockBegin
  2
PAGE_TO
 70
2
 10
0.0
 20
0.0
 30
0.0
  3
PAGE_TO
  1

  0
LINE
  5
AD
330
AA
100
AcDbEntity
  8
LD_SYMBOL
100
AcDbLine
 10
0.0
 20
-2.0
 30
0.0
 11
8.580000000002
 21
-2.0
 31
0.0
  0
LINE
  5
AE
330
AA
100
AcDbEntity
  8
LD_SYMBOL
100
AcDbLine
 10
8.580000000002
 20
0.0
 30
0.0
 11
0.0
 21
0.0
 31
0.0
  0
LINE
  5
AF
330
AA
100
AcDbEntity
  8
LD_SYMBOL
100
AcDbLine
 10
10.0
 20
-1.0
 30
0.0
 11
8.580000000002
 21
0.0
 31
0.0
  0
LINE
  5
B0
330
AA
100
AcDbEntity
  8
LD_SYMBOL
100
AcDbLine
 10
10.0
 20
-1.0
 30
0.0
 11
8.580000000002
 21
-2.0
 31
0.0
  0
LINE
  5
B1
330
AA
100
AcDbEntity
  8
LD_SYMBOL
100
AcDbLine
 10
1.419999999998
 20
-1.0
 30
0.0
 11
0.0
 21
0.0
 31
0.0
  0
LINE
  5
B2
330
AA
100
AcDbEntity
  8
LD_SYMBOL
100
AcDbLine
 10
1.419999999998
 20
-1.0
 30
0.0
 11
0.0
 21
-2.0
 31
0.0
  0
LINE
  5
B3
330
AA
100
AcDbEntity
  8
LD_SYMBOL
100
AcDbLine
 10
10.0
 20
-1.0
 30
0.0
 11
13.419999999998
 21
-1.0
 31
0.0
  0
POINT
  5
B4
330
AA
100
AcDbEntity
  8
LD_PORT_OUT0_LOGIC
100
AcDbPoint
 10
13.419999999998
 20
-1.0
 30
0.0
  0
ATTDEF
  5
B5
330
AA
100
AcDbEntity
  8
LD_TEXT
100
AcDbText
 10
2.522491505857
 20
-1.497127430332
 30
0.0
 40
1.0
  1

100
AcDbAttributeDefinition
  3

  2
SYM
 70
0
  0
ENDBLK
  5
AC
330
AA
100
AcDbEntity
  8
0
100
AcDbBlockEnd
  0
BLOCK
  5
B7
330
B6
100
AcDbEntity
  8
0
100
AcDbBlockBegin
  2
_None
 70
0
 10
0.0
 20
0.0
 30
0.0
  3
_None
  1

  0
ENDBLK
  5
B8
330
B6
100
AcDbEntity
  8
0
100
AcDbBlockEnd
  0
BLOCK
  5
BA
330
B9
100
AcDbEntity
  8
0
100
AcDbBlockBegin
  2
ALARM1
 70
2
 10
0.0
 20
0.0
 30
0.0
  3
ALARM1
  1

  0
LWPOLYLINE
  5
BC
330
B9
100
AcDbEntity
  8
LD_SYMBOL
100
AcDbPolyline
 90
4
 70
1
 10
-55.0
 20
5.5
 10
-15.0
 20
5.5
 10
-15.0
 20
-5.5
 10
-55.0
 20
-5.5
  0
POINT
  5
BD
330
B9
100
AcDbEntity
  8
LD_PORT_IN1_LOGIC
100
AcDbPoint
 10
-55.0
 20
0.0
 30
0.0
  0
POINT
  5
BE
330
B9
100
AcDbEntity
  8
LD_PORT_OUT0_LOGIC
100
AcDbPoint
 10
0.0
 20
0.0
 30
0.0
  0
LINE
  5
BF
330
B9
100
AcDbEntity
  8
LD_SYMBOL
100
AcDbLine
 10
-15.0
 20
0.0
 30
0.0
 11
0.0
 21
0.0
 31
0.0
  0
CIRCLE
  5
C0
330
B9
100
AcDbEntity
  8
LD_SYMBOL
100
AcDbCircle
 10
-6.294987066045
 20
9.549578070024
 30
0.0
 40
5.000000000001281
  0
LINE
  5
C1
330
B9
100
AcDbEntity
  8
LD_SYMBOL
100
AcDbLine
 10
-6.294987066045
 20
4.549578070023
 30
0.0
 11
-6.294987066045
 21
0.0
 31
0.0
  0
ATTDEF
  5
C2
330
B9
100
AcDbEntity
  8
LD_TEXT
100
AcDbText
 10
-54.164892892688
 20
-6.740485755779
 30
0.0
 40
0.65
  1

100
AcDbAttributeDefinition
  3

  2
SYM
 70
0
  0
ATTDEF
  5
C3
330
B9
100
AcDbEntity
  8
LD_TEXT
100
AcDbText
 10
-8.381477723335
 20
7.251245356985
 30
0.0
 40
4.489257028112
  1
A
100
AcDbAttributeDefinition
  3

  2
STATIC_LABEL0
 70
0
  0
ATTDEF
  5
C4
330
B9
100
AcDbEntity
  8
LD_TEXT
100
AcDbText
 10
-55.025671066163
 20
6.511213173795
 30
0.0
 40
2.539006024097
  1

100
AcDbAttributeDefinition
  3

  2
LABEL0
 70
0
  0
ATTDEF
  5
C5
330
B9
100
AcDbEntity
  8
LD_TEXT
100
AcDbText
 10
-51.648420071899
 20
-3.488226769288
 30
0.0
 40
2.539006024097
  1

100
AcDbAttributeDefinition
  3

  2
LABEL2
 70
0
  0
ATTDEF
  5
C6
330
B9
100
AcDbEntity
  8
LD_TEXT
100
AcDbText
 10
-51.648420071899
 20
1.311773230712
 30
0.0
 40
2.539006024097
  1

100
AcDbAttributeDefinition
  3

  2
LABEL1
 70
0
  0
ENDBLK
  5
BB
330
B9
100
AcDbEntity
  8
0
100
AcDbBlockEnd
  0
BLOCK
  5
C8
330
C7
100
AcDbEntity
  8
0
100
AcDbBlockBegin
  2
NOT
 70
2
 10
0.0
 20
0.0
 30
0.0
  3
NOT
  1

  0
CIRCLE
  5
CA
330
C7
100
AcDbEntity
  8
LD_SYMBOL
100
AcDbCircle
 10
0.0
 20
0.0
 30
0.0
 40
2.0
  0
POINT
  5
CB
330
C7
100
AcDbEntity
  8
LD_PORT_IN0_LOGIC
100
AcDbPoint
 10
-3.0
 20
0.0
 30
0.0
  0
POINT
  5
CC
330
C7
100
AcDbEntity
  8
LD_PORT_OUT0_LOGIC
100
AcDbPoint
 10
3.0
 20
0.0
 30
0.0
  0
LINE
  5
CD
330
C7
100
AcDbEntity
  8
LD_SYMBOL
100
AcDbLine
 10
-2.0
 20
0.0
 30
0.0
 11
-3.0
 21
0.0
 31
0.0
  0
LINE
  5
CE
330
C7
100
AcDbEntity
  8
LD_SYMBOL
100
AcDbLine
 10
2.0
 20
0.0
 30
0.0
 11
3.0
 21
0.0
 31
0.0
  0
ATTDEF
  5
CF
330
C7
100
AcDbEntity
  8
LD_TEXT
100
AcDbText
 10
-1.040791268759
 20
-3.186413851641
 30
0.0
 40
0.65
  1

100
AcDbAttributeDefinition
  3

  2
SYM
 70
0
  0
ENDBLK
  5
C9
330
C7
100
AcDbEntity
  8
0
100
AcDbBlockEnd
  0
BLOCK
  5
D1
330
D0
100
AcDbEntity
  8
0
100
AcDbBlockBegin
  2
ALARM2
 70
2
 10
0.0
 20
0.0
 30
0.0
  3
ALARM2
  1

  0
LWPOLYLINE
  5
D3
330
D0
100
AcDbEntity
  8
LD_SYMBOL
100
AcDbPolyline
 90
4
 70
1
 10
0.0
 20
5.5
 10
40.0
 20
5.5
 10
40.0
 20
-5.5
 10
0.0
 20
-5.5
  0
POINT
  5
D4
330
D0
100
AcDbEntity
  8
LD_PORT_IN1_LOGIC
100
AcDbPoint
 10
-15.0
 20
0.0
 30
0.0
  0
POINT
  5
D5
330
D0
100
AcDbEntity
  8
LD_PORT_OUT0_LOGIC
100
AcDbPoint
 10
55.0
 20
0.0
 30
0.0
  0
LINE
  5
D6
330
D0
100
AcDbEntity
  8
LD_SYMBOL
100
AcDbLine
 10
40.0
 20
0.0
 30
0.0
 11
55.0
 21
0.0
 31
0.0
  0
CIRCLE
  5
D7
330
D0
100
AcDbEntity
  8
LD_SYMBOL
100
AcDbCircle
 10
48.705012933955
 20
9.549578070024
 30
0.0
 40
5.000000000001281
  0
LINE
  5
D8
330
D0
100
AcDbEntity
  8
LD_SYMBOL
100
AcDbLine
 10
48.705012933955
 20
4.549578070023
 30
0.0
 11
48.705012933955
 21
0.0
 31
0.0
  0
LINE
  5
D9
330
D0
100
AcDbEntity
  8
LD_SYMBOL
100
AcDbLine
 10
-15.0
 20
0.0
 30
0.0
 11
0.0
 21
0.0
 31
0.0
  0
ATTDEF
  5
DA
330
D0
100
AcDbEntity
  8
LD_TEXT
100
AcDbText
 10
0.835107107312
 20
-6.740485755779
 30
0.0
 40
0.65
  1

100
AcDbAttributeDefinition
  3

  2
SYM
 70
0
  0
ATTDEF
  5
DB
330
D0
100
AcDbEntity
  8
LD_TEXT
100
AcDbText
 10
46.618522276665
 20
7.251245356985
 30
0.0
 40
4.489257028112
  1
A
100
AcDbAttributeDefinition
  3

  2
STATIC_LABEL0
 70
0
  0
ATTDEF
  5
DC
330
D0
100
AcDbEntity
  8
LD_TEXT
100
AcDbText
 10
-0.025671066163
 20
6.511213173795
 30
0.0
 40
2.539006024097
  1

100
AcDbAttributeDefinition
  3

  2
LABEL0
 70
0
  0
ATTDEF
  5
DD
330
D0
100
AcDbEntity
  8
LD_TEXT
100
AcDbText
 10
3.351579928101
 20
-3.488226769288
 30
0.0
 40
2.539006024097
  1

100
AcDbAttributeDefinition
  3

  2
LABEL2
 70
0
  0
ATTDEF
  5
DE
330
D0
100
AcDbEntity
  8
LD_TEXT
100
AcDbText
 10
3.351579928101
 20
1.311773230712
 30
0.0
 40
2.539006024097
  1

100
AcDbAttributeDefinition
  3

  2
LABEL1
 70
0
  0
ENDBLK
  5
D2
330
D0
100
AcDbEntity
  8
0
100
AcDbBlockEnd
  0
BLOCK
  5
E0
330
DF
100
AcDbEntity
  8
0
100
AcDbBlockBegin
  2
LD_CHECKPOINT
 70
2
 10
0.0
 20
0.0
 30
0.0
  3
LD_CHECKPOINT
  1

  0
POINT
  5
E2
330
DF
100
AcDbEntity
  8
LD_PORT_IN0_MULTI
100
AcDbPoint
 10
0.0
 20
0.0
 30
0.0
  0
POINT
  5
E3
330
DF
100
AcDbEntity
  8
LD_PORT_OUT0_MULTI
100
AcDbPoint
 10
0.0
 20
0.0
 30
0.0
  0
ATTDEF
  5
E4
330
DF
100
AcDbEntity
  8
LD_TEXT
100
AcDbText
 10
0.25
 20
0.35
 30
0.0
 40
0.28
  1
CP_1
100
AcDbAttributeDefinition
  3

  2
SYM
 70
0
  0
ENDBLK
  5
E1
330
DF
100
AcDbEntity
  8
0
100
AcDbBlockEnd
  0
BLOCK
  5
E6
330
E5
100
AcDbEntity
  8
0
100
AcDbBlockBegin
  2
COMPARE
 70
2
 10
0.0
 20
0.0
 30
0.0
  3
COMPARE
  1

  0
LWPOLYLINE
  5
E8
330
E5
100
AcDbEntity
  8
LD_SYMBOL
100
AcDbPolyline
 90
4
 70
1
 10
0.0
 20
0.0
 10
8.0
 20
0.0
 10
8.0
 20
6.0
 10
0.0
 20
6.0
  0
LINE
  5
E9
330
E5
100
AcDbEntity
  8
LD_SYMBOL
100
AcDbLine
 10
0.0
 20
3.0
 30
0.0
 11
-1.0
 21
3.0
 31
0.0
  0
POINT
  5
EA
330
E5
100
AcDbEntity
  8
LD_PORT_IN0_VALUE
100
AcDbPoint
 10
-1.0
 20
3.0
 30
0.0
  0
LINE
  5
EB
330
E5
100
AcDbEntity
  8
LD_SYMBOL
100
AcDbLine
 10
4.0
 20
0.0
 30
0.0
 11
4.0
 21
-1.0
 31
0.0
  0
POINT
  5
EC
330
E5
100
AcDbEntity
  8
LD_PORT_IN1_MULTI
100
AcDbPoint
 10
4.0
 20
-1.0
 30
0.0
  0
LINE
  5
ED
330
E5
100
AcDbEntity
  8
LD_SYMBOL
100
AcDbLine
 10
4.0
 20
6.0
 30
0.0
 11
4.0
 21
7.0
 31
0.0
  0
POINT
  5
EE
330
E5
100
AcDbEntity
  8
LD_PORT_OUT0_LOGIC
100
AcDbPoint
 10
4.0
 20
7.0
 30
0.0
  0
ATTDEF
  5
EF
330
E5
100
AcDbEntity
  8
LD_TEXT
100
AcDbText
 10
0.3
 20
-0.6
 30
0.0
 40
0.35
  1
COMPARE
100
AcDbAttributeDefinition
  3

  2
SYM
 70
0
  0
ENDBLK
  5
E7
330
E5
100
AcDbEntity
  8
0
100
AcDbBlockEnd
  0
BLOCK
  5
F6
330
F5
100
AcDbEntity
  8
0
100
AcDbBlockBegin
  2
LD_WIRE_BRANCH
 70
2
 10
0.0
 20
0.0
 30
0.0
  3
LD_WIRE_BRANCH
  1

  0
POINT
  5
F8
330
F5
100
AcDbEntity
  8
LD_PORT_IN0_MULTI
100
AcDbPoint
 10
0.0
 20
0.0
 30
0.0
  0
POINT
  5
F9
330
F5
100
AcDbEntity
  8
LD_PORT_OUT0_MULTI
100
AcDbPoint
 10
0.0
 20
0.0
 30
0.0
  0
CIRCLE
  5
FA
330
F5
100
AcDbEntity
  8
LD_SYMBOL
 62
7
100
AcDbCircle
 10
0.0
 20
0.0
 30
0.0
 40
0.5
  0
HATCH
  5
FB
330
F5
100
AcDbEntity
  8
LD_SYMBOL
 62
7
100
AcDbHatch
 10
0.0
 20
0.0
 30
0.0
210
0.0
220
0.0
230
1.0
  2
SOLID
 70
1
 71
0
 91
1
 92
1
 93
1
 72
2
 10
0.0
 20
0.0
 40
0.5
 50
0.0
 51
360.0
 73
1
 97
0
 75
0
 76
1
 98
0
  0
ATTDEF
  5
FC
330
F5
100
AcDbEntity
  8
LD_TEXT
100
AcDbText
 10
0.35
 20
0.55
 30
0.0
 40
0.22
  1
BR_1
100
AcDbAttributeDefinition
  3

  2
SYM
 70
0
  0
ENDBLK
  5
F7
330
F5
100
AcDbEntity
  8
0
100
AcDbBlockEnd
  0
BLOCK
  5
FE
330
FD
100
AcDbEntity
  8
0
100
AcDbBlockBegin
  2
AND_2
 70
2
 10
0.0
 20
0.0
 30
0.0
  3
AND_2
  1

  0
LINE
  5
100
330
FD
100
AcDbEntity
  8
LD_SYMBOL
100
AcDbLine
 10
0.0
 20
2.0
 30
0.0
 11
2.0
 21
2.0
 31
0.0
  0
POINT
  5
101
330
FD
100
AcDbEntity
  8
LD_PORT_IN0_LOGIC
100
AcDbPoint
 10
0.0
 20
2.0
 30
0.0
  0
LINE
  5
102
330
FD
100
AcDbEntity
  8
LD_SYMBOL
100
AcDbLine
 10
0.0
 20
4.0
 30
0.0
 11
2.0
 21
4.0
 31
0.0
  0
POINT
  5
103
330
FD
100
AcDbEntity
  8
LD_PORT_IN1_LOGIC
100
AcDbPoint
 10
0.0
 20
4.0
 30
0.0
  0
LINE
  5
104
330
FD
100
AcDbEntity
  8
LD_SYMBOL
100
AcDbLine
 10
2.0
 20
0.0
 30
0.0
 11
2.0
 21
6.0
 31
0.0
  0
LINE
  5
105
330
FD
100
AcDbEntity
  8
LD_SYMBOL
100
AcDbLine
 10
2.0
 20
1.0
 30
0.0
 11
6.0
 21
1.0
 31
0.0
  0
LINE
  5
106
330
FD
100
AcDbEntity
  8
LD_SYMBOL
100
AcDbLine
 10
2.0
 20
5.0
 30
0.0
 11
6.0
 21
5.0
 31
0.0
  0
LINE
  5
107
330
FD
100
AcDbEntity
  8
LD_SYMBOL
100
AcDbLine
 10
6.0
 20
1.0
 30
0.0
 11
6.0
 21
5.0
 31
0.0
  0
LINE
  5
108
330
FD
100
AcDbEntity
  8
LD_SYMBOL
100
AcDbLine
 10
6.0
 20
3.0
 30
0.0
 11
8.0
 21
3.0
 31
0.0
  0
POINT
  5
109
330
FD
100
AcDbEntity
  8
LD_PORT_OUT0_LOGIC
100
AcDbPoint
 10
8.0
 20
3.0
 30
0.0
  0
ATTDEF
  5
10A
330
FD
100
AcDbEntity
  8
LD_TEXT
100
AcDbText
 10
2.15
 20
-0.38
 30
0.0
 40
0.85
  1
AND_2
100
AcDbAttributeDefinition
  3

  2
SYM
 70
0
  0
ATTDEF
  5
10B
330
FD
100
AcDbEntity
  8
LD_TEXT
100
AcDbText
 10
4.0
 20
3.0
 30
0.0
 40
3.0
  1
A
 72
1
 11
4.0
 21
3.0
 31
0.0
100
AcDbAttributeDefinition
  3

  2
STATIC_LABEL0
 70
0
 74
2
  0
ATTDEF
  5
10C
330
FD
100
AcDbEntity
  8
LD_TEXT
100
AcDbText
 10
2.2
 20
1.2
 30
0.0
 40
0.72
  1

100
AcDbAttributeDefinition
  3

  2
LABEL0
 70
0
  0
ENDBLK
  5
FF
330
FD
100
AcDbEntity
  8
0
100
AcDbBlockEnd
  0
ENDSEC
  0
SECTION
  2
ENTITIES
  0
VIEWPORT
  5
87
330
1B
100
AcDbEntity
 67
1
  8
VIEWPORTS
100
AcDbViewport
 10
148.5
 20
105.0
 30
0.0
 40
326.70000000000005
 41
231.00000000000003
 68
1
 69
1
 12
148.5
 22
105.0
 13
0.0
 23
0.0
 14
10.0
 24
10.0
 15
10.0
 25
10.0
 16
0.0
 26
0.0
 36
1.0
 17
0.0
 27
0.0
 37
0.0
 42
50.0
 43
0.0
 44
0.0
 45
231.00000000000003
 50
0.0
 51
0.0
 72
100
 90
557088
  1

281
0
 71
0
 74
0
110
0.0
120
0.0
130
0.0
111
1.0
121
0.0
131
0.0
112
0.0
122
1.0
132
0.0
 79
0
146
0.0
282
0
  0
INSERT
  5
80
330
1B
100
AcDbEntity
 67
1
  8
0
100
AcDbBlockReference
 66
1
  2
LD_PAPER_FRAME
 10
0.0
 20
0.0
 30
0.0
1001
LD_APP
1000
ver:1
1000
uid:bf7bed55-e1bd-4ba5-bb6b-aba10accee1d
1000
type:PAPER_FRAME
  0
ATTRIB
  5
81
330
80
100
AcDbEntity
 67
1
  8
LD_FRAME_TEXT
100
AcDbText
 10
14.0
 20
22.0
 30
0.0
 40
2.5
  1
{{DWG_NO}}
 11
14.0
 21
22.0
 31
0.0
100
AcDbAttribute
  2
DWG_NO
 70
0
  0
ATTRIB
  5
82
330
80
100
AcDbEntity
 67
1
  8
LD_FRAME_TEXT
100
AcDbText
 10
98.0
 20
22.0
 30
0.0
 40
2.5
  1
{{PAGE_NAME}}
 11
98.0
 21
22.0
 31
0.0
100
AcDbAttribute
  2
PAGE_NAME
 70
0
  0
ATTRIB
  5
83
330
80
100
AcDbEntity
 67
1
  8
LD_FRAME_TEXT
100
AcDbText
 10
176.0
 20
22.0
 30
0.0
 40
2.5
  1
{{PAGE_DESC}}
 11
176.0
 21
22.0
 31
0.0
100
AcDbAttribute
  2
PAGE_DESC
 70
0
  0
ATTRIB
  5
84
330
80
100
AcDbEntity
 67
1
  8
LD_FRAME_TEXT
100
AcDbText
 10
283.0
 20
22.0
 30
0.0
 40
2.5
  1
Rev: {{PAGE_REV}}
 72
2
 11
283.0
 21
22.0
 31
0.0
100
AcDbAttribute
  2
PAGE_REV
 70
0
  0
SEQEND
  5
85
330
1B
100
AcDbEntity
 67
1
  8
0
  0
INSERT
  5
112
330
1B
100
AcDbEntity
 67
1
  8
0
100
AcDbBlockReference
 66
1
  2
LD_WIRE_BRANCH
 10
49.0
 20
148.0
 30
0.0
1001
LD_APP
1000
ver:1
1000
uid:d0f777a4-58fa-4337-a0c0-d205f8c1a5d6
1000
type:WIRE_BRANCH
  0
ATTRIB
  5
114
330
112
100
AcDbEntity
 67
1
  8
LD_TEXT
 60
1
100
AcDbText
 10
49.35
 20
148.55
 30
0.0
 40
0.22
  1
BR_1
 11
49.35
 21
148.55
 31
0.0
100
AcDbAttribute
  2
SYM
 70
0
  0
SEQEND
  5
113
330
1B
100
AcDbEntity
 67
1
  8
0
  0
INSERT
  5
115
330
1B
100
AcDbEntity
 67
1
  8
0
100
AcDbBlockReference
 66
1
  2
LD_WIRE_BRANCH
 10
70.0
 20
148.0
 30
0.0
1001
LD_APP
1000
ver:1
1000
uid:27668a1a-f52c-4dcf-ae33-8b2811e9e4f3
1000
type:WIRE_BRANCH
  0
ATTRIB
  5
117
330
115
100
AcDbEntity
 67
1
  8
LD_TEXT
 60
1
100
AcDbText
 10
70.35
 20
148.55
 30
0.0
 40
0.22
  1
BR_2
 11
70.35
 21
148.55
 31
0.0
100
AcDbAttribute
  2
SYM
 70
0
  0
SEQEND
  5
116
330
1B
100
AcDbEntity
 67
1
  8
0
  0
LWPOLYLINE
  5
118
330
1B
100
AcDbEntity
 67
1
  8
LD_WIRE_LOGIC
  6
CONTINUOUS
100
AcDbPolyline
 90
2
 70
0
 10
49.0
 20
148.0
 10
70.0
 20
148.0
1001
LD_APP
1000
ver:1
1000
uid:2ecb051c-c14a-4aca-8578-908218e99c25
1000
type:WIRE
1000
unit:LOGIC
1000
src:d0f777a4-58fa-4337-a0c0-d205f8c1a5d6
1000
src_port:OUT0_MULTI
1000
dst:27668a1a-f52c-4dcf-ae33-8b2811e9e4f3
1000
dst_port:IN0_MULTI
  0
INSERT
  5
11E
330
1B
100
AcDbEntity
 67
1
  8
0
100
AcDbBlockReference
 66
1
  2
AND_2
 10
31.0
 20
144.0
 30
0.0
1001
LD_APP
1000
ver:1
1000
uid:2d5c6303-eb2e-4627-b46b-2424221bbbd9
1000
type:AND
  0
ATTRIB
  5
120
330
11E
100
AcDbEntity
 67
1
  8
LD_TEXT
 60
1
100
AcDbText
 10
33.15
 20
143.62
 30
0.0
 40
0.85
  1
AND_2
 11
33.15
 21
143.62
 31
0.0
100
AcDbAttribute
  2
SYM
 70
0
  0
ATTRIB
  5
121
330
11E
100
AcDbEntity
 67
1
  8
LD_TEXT
100
AcDbText
 10
35.0
 20
147.0
 30
0.0
 40
3.0
  1
A
 72
1
 11
35.0
 21
147.0
 31
0.0
100
AcDbAttribute
  2
STATIC_LABEL0
 70
0
 74
2
  0
ATTRIB
  5
122
330
11E
100
AcDbEntity
 67
1
  8
LD_TEXT
100
AcDbText
 10
33.2
 20
145.2
 30
0.0
 40
0.72
  1

 11
33.2
 21
145.2
 31
0.0
100
AcDbAttribute
  2
LABEL0
 70
0
  0
SEQEND
  5
11F
330
1B
100
AcDbEntity
 67
1
  8
0
  0
INSERT
  5
128
330
1B
100
AcDbEntity
 67
1
  8
0
100
AcDbBlockReference
 66
1
  2
AND_2
 10
78.0
 20
158.0
 30
0.0
1001
LD_APP
1000
ver:1
1000
uid:9dc38f82-1ab8-45cf-b4aa-308e55ab1c1f
1000
type:AND
  0
ATTRIB
  5
12A
330
128
100
AcDbEntity
 67
1
  8
LD_TEXT
 60
1
100
AcDbText
 10
80.15
 20
157.62
 30
0.0
 40
0.85
  1
AND_1
 11
80.15
 21
157.62
 31
0.0
100
AcDbAttribute
  2
SYM
 70
0
  0
ATTRIB
  5
12B
330
128
100
AcDbEntity
 67
1
  8
LD_TEXT
100
AcDbText
 10
82.0
 20
161.0
 30
0.0
 40
3.0
  1
A
 72
1
 11
82.0
 21
161.0
 31
0.0
100
AcDbAttribute
  2
STATIC_LABEL0
 70
0
 74
2
  0
ATTRIB
  5
12C
330
128
100
AcDbEntity
 67
1
  8
LD_TEXT
100
AcDbText
 10
80.2
 20
159.2
 30
0.0
 40
0.72
  1

 11
80.2
 21
159.2
 31
0.0
100
AcDbAttribute
  2
LABEL0
 70
0
  0
SEQEND
  5
129
330
1B
100
AcDbEntity
 67
1
  8
0
  0
ENDSEC
  0
SECTION
  2
OBJECTS
  0
DICTIONARY
  5
A
330
0
100
AcDbDictionary
281
1
  3
ACAD_COLOR
350
B
  3
ACAD_GROUP
350
C
  3
ACAD_LAYOUT
350
D
  3
ACAD_MATERIAL
350
E
  3
ACAD_MLEADERSTYLE
350
F
  3
ACAD_MLINESTYLE
350
10
  3
ACAD_PLOTSETTINGS
350
11
  3
ACAD_PLOTSTYLENAME
350
12
  3
ACAD_SCALELIST
350
14
  3
ACAD_TABLESTYLE
350
15
  3
ACAD_VISUALSTYLE
350
16
  3
EZDXF_META
350
2D
  0
DICTIONARY
  5
B
330
A
100
AcDbDictionary
281
1
  0
DICTIONARY
  5
C
330
A
100
AcDbDictionary
281
1
  0
DICTIONARY
  5
D
330
A
100
AcDbDictionary
281
1
  3
Model
350
1A
  3
Layout1
350
1E
  0
DICTIONARY
  5
E
330
A
100
AcDbDictionary
281
1
  3
ByBlock
350
1F
  3
ByLayer
350
20
  3
Global
350
21
  0
DICTIONARY
  5
F
330
A
100
AcDbDictionary
281
1
  3
Standard
350
2C
  0
DICTIONARY
  5
10
330
A
100
AcDbDictionary
281
1
  3
Standard
350
22
  0
DICTIONARY
  5
11
330
A
100
AcDbDictionary
281
1
  0
ACDBDICTIONARYWDFLT
  5
12
330
A
100
AcDbDictionary
281
1
  3
Normal
350
13
100
AcDbDictionaryWithDefault
340
13
  0
ACDBPLACEHOLDER
  5
13
330
12
  0
DICTIONARY
  5
14
330
A
100
AcDbDictionary
281
1
  0
DICTIONARY
  5
15
330
A
100
AcDbDictionary
281
1
  0
DICTIONARY
  5
16
330
A
100
AcDbDictionary
281
1
  0
LAYOUT
  5
1A
330
D
100
AcDbPlotSettings
  1

  4
A3
  6

 40
7.5
 41
20.0
 42
7.5
 43
20.0
 44
420.0
 45
297.0
 46
0.0
 47
0.0
 48
0.0
 49
0.0
140
0.0
141
0.0
142
1.0
143
1.0
 70
1024
 72
1
 73
0
 74
5
  7

 75
16
 76
0
 77
2
 78
300
147
1.0
148
0.0
149
0.0
100
AcDbLayout
  1
Model
 70
1
 71
0
 10
0.0
 20
0.0
 11
420.0
 21
297.0
 12
0.0
 22
0.0
 32
0.0
 14
1e+20
 24
1e+20
 34
1e+20
 15
-1e+20
 25
-1e+20
 35
-1e+20
146
0.0
 13
0.0
 23
0.0
 33
0.0
 16
1.0
 26
0.0
 36
0.0
 17
0.0
 27
1.0
 37
0.0
 76
1
330
17
  0
LAYOUT
  5
1E
330
D
100
AcDbPlotSettings
  1

  4
A4
  6

 40
0.0
 41
0.0
 42
0.0
 43
0.0
 44
297.0
 45
210.0
 46
0.0
 47
0.0
 48
0.0
 49
0.0
140
0.0
141
0.0
142
1.0
143
1.0
 70
0
 72
1
 73
0
 74
5
  7

 75
16
 76
0
 77
2
 78
300
147
1.0
148
0.0
149
0.0
100
AcDbLayout
  1
Layout1
 70
1
 71
1
 10
-0.0
 20
-0.0
 11
297.0
 21
210.0
 12
0.0
 22
0.0
 32
0.0
 14
1e+20
 24
1e+20
 34
1e+20
 15
-1e+20
 25
-1e+20
 35
-1e+20
146
0.0
 13
0.0
 23
0.0
 33
0.0
 16
1.0
 26
0.0
 36
0.0
 17
0.0
 27
1.0
 37
0.0
 76
1
330
1B
331
87
1001
LD_APP
1000
ver:1
1000
uid:30ab160c-a4d7-45ef-97d4-567ac88c37a4
1000
type:PAGE
  0
MATERIAL
  5
1F
102
{ACAD_REACTORS
330
E
102
}
330
E
100
AcDbMaterial
  1
ByBlock
  2

 70
0
 40
1.0
 71
1
 41
1.0
 91
-1023410177
 42
1.0
 72
1
  3

 73
1
 74
1
 75
1
 44
0.5
 73
0
 45
1.0
 46
1.0
 77
1
  4

 78
1
 79
1
170
1
 48
1.0
171
1
  6

172
1
173
1
174
1
140
1.0
141
1.0
175
1
  7

176
1
177
1
178
1
143
1.0
179
1
  8

270
1
271
1
272
1
145
1.0
146
1.0
273
1
  9

274
1
275
1
276
1
 42
1.0
 72
1
  3

 73
1
 74
1
 75
1
 94
63
  0
MATERIAL
  5
20
102
{ACAD_REACTORS
330
E
102
}
330
E
100
AcDbMaterial
  1
ByLayer
  2

 70
0
 40
1.0
 71
1
 41
1.0
 91
-1023410177
 42
1.0
 72
1
  3

 73
1
 74
1
 75
1
 44
0.5
 73
0
 45
1.0
 46
1.0
 77
1
  4

 78
1
 79
1
170
1
 48
1.0
171
1
  6

172
1
173
1
174
1
140
1.0
141
1.0
175
1
  7

176
1
177
1
178
1
143
1.0
179
1
  8

270
1
271
1
272
1
145
1.0
146
1.0
273
1
  9

274
1
275
1
276
1
 42
1.0
 72
1
  3

 73
1
 74
1
 75
1
 94
63
  0
MATERIAL
  5
21
102
{ACAD_REACTORS
330
E
102
}
330
E
100
AcDbMaterial
  1
Global
  2

 70
0
 40
1.0
 71
1
 41
1.0
 91
-1023410177
 42
1.0
 72
1
  3

 73
1
 74
1
 75
1
 44
0.5
 73
0
 45
1.0
 46
1.0
 77
1
  4

 78
1
 79
1
170
1
 48
1.0
171
1
  6

172
1
173
1
174
1
140
1.0
141
1.0
175
1
  7

176
1
177
1
178
1
143
1.0
179
1
  8

270
1
271
1
272
1
145
1.0
146
1.0
273
1
  9

274
1
275
1
276
1
 42
1.0
 72
1
  3

 73
1
 74
1
 75
1
 94
63
  0
MLINESTYLE
  5
22
102
{ACAD_REACTORS
330
10
102
}
330
10
100
AcDbMlineStyle
  2
Standard
 70
0
  3

 62
256
 51
90.0
 52
90.0
 71
2
 49
0.5
 62
256
  6
BYLAYER
 49
-0.5
 62
256
  6
BYLAYER
  0
MLEADERSTYLE
  5
2C
102
{ACAD_REACTORS
330
F
102
}
330
F
100
AcDbMLeaderStyle
179
2
170
2
171
1
172
0
 90
2
 40
0.0
 41
0.0
173
1
 91
-1056964608
 92
-2
290
1
 42
2.0
291
1
 43
8.0
  3
Standard
 44
4.0
300

342
29
174
1
175
1
176
0
178
1
 93
-1056964608
 45
4.0
292
0
297
0
 46
4.0
 94
-1056964608
 47
1.0
 49
1.0
140
1.0
294
1
141
0.0
177
0
142
1.0
295
0
296
0
143
3.75
271
0
272
9
273
9
  0
DICTIONARY
  5
2D
330
A
100
AcDbDictionary
280
1
281
1
  3
CREATED_BY_EZDXF
350
2E
  3
WRITTEN_BY_EZDXF
350
12F
  0
DICTIONARYVAR
  5
2E
330
2D
100
DictionaryVariables
280
0
  1
1.4.3 @ 2026-04-13T16:16:02.416961+00:00
  0
DICTIONARYVAR
  5
12F
330
2D
100
DictionaryVariables
280
0
  1
1.4.3 @ 2026-04-15T09:41:21.837006+00:00
  0
ENDSEC
  0
EOF
